<svg width="400" height="219" viewBox="0 0 400 219" fill="none" xmlns="http://www.w3.org/2000/svg">
<path d="M158.229 95.804H218.26V111.43H175.542V131.506H212.067V147.132H175.542V167.717H218.26V183.343H158.229V95.8008V95.804Z" fill="white"/>
<path d="M267.273 171.27H279.108L315.317 102.151V95.8008H299.392L284.479 126.167L273.864 148.275H273.106L262.615 126.676L247.072 95.8008H231.146V102.311L267.273 171.27Z" fill="#E64415"/>
<path d="M231.146 126.488V183.338H248.46V159.54L231.146 126.488Z" fill="white"/>
<path d="M298.004 159.38V183.338H315.318V126.328L298.004 159.38Z" fill="white"/>
<path d="M379.52 183.343V111.43H347.417V183.343H330.104V95.8008H397.085V183.343H379.516H379.52Z" fill="white"/>
<path d="M97.2636 84.5496V182.351H133.728V72.649H199.407V30.7599L144.359 0H2.2168V61.5229H55.721V128.564H63.4131V53.7898H9.90574V7.73318H142.382L184.032 30.7599H97.2636V84.5496Z" fill="#E64415"/>
<path d="M398.399 212.053H396.559V198.089L388.409 212.053H385.736V196.195H387.577V210.159L395.726 196.195H398.399V212.053Z" fill="white"/>
<path d="M371.166 212.053V196.195H373.006V203.992L381.09 196.195H383.544L376.577 202.913L383.544 212.053H381.419L375.372 204.08L373.006 206.349V212.053H371.166Z" fill="white"/>
<path d="M355.805 212.053V196.195H362.596C366.671 196.195 367.876 198.266 367.876 200.358C367.876 202.12 366.671 203.419 365.51 203.816C367.263 204.345 368.314 205.732 368.314 207.538C368.314 209.807 367.065 212.053 362.815 212.053H355.805ZM357.645 203.045H363.275C365.094 203.045 366.036 201.922 366.036 200.358C366.036 198.97 365.159 197.869 362.596 197.869H357.645V203.045ZM357.645 210.379H362.815C365.598 210.379 366.474 209.014 366.474 207.538C366.474 205.93 365.378 204.675 363.275 204.675H357.645V210.379Z" fill="white"/>
<path d="M350.465 212.053V196.195H352.305V212.053H350.465Z" fill="white"/>
<path d="M335.67 212.053V196.195H337.51V203.992L345.594 196.195H348.048L341.081 202.913L348.048 212.053H345.923L339.876 204.08L337.51 206.349V212.053H335.67Z" fill="white"/>
<path d="M321.996 212.053V210.379C323.399 210.379 324.275 209.63 325.786 206.789L319.959 196.195H321.953L326.772 205.071L331.592 196.195H333.586L327.692 206.943C325.765 210.467 324.472 212.053 321.996 212.053Z" fill="white"/>
<path d="M306.488 212.053V196.195H313.63C316.982 196.195 318.976 198.332 318.976 201.283C318.976 204.234 316.982 206.371 313.63 206.371H308.329V212.053H306.488ZM308.329 204.697H313.63C315.996 204.697 317.136 203.265 317.136 201.283C317.136 199.301 315.996 197.869 313.63 197.869H308.329V204.697Z" fill="white"/>
<path d="M291.346 212.053V196.195H302.453V197.869H293.186V202.494H298.137C302.387 202.494 303.636 204.895 303.636 207.274C303.636 209.652 302.387 212.053 298.137 212.053H291.346ZM293.186 210.379H298.137C300.919 210.379 301.818 208.86 301.818 207.274C301.818 205.688 300.919 204.168 298.137 204.168H293.186V210.379Z" fill="white"/>
<path d="M282.786 212.053H280.945V205.512H275.819L272.533 212.053H270.539L273.935 205.292C271.985 204.697 270.539 203.287 270.539 200.843C270.539 198.156 272.445 196.195 275.556 196.195H282.786V212.053ZM280.945 203.838V197.869H275.556C273.409 197.869 272.379 199.081 272.379 200.865C272.379 202.627 273.409 203.838 275.556 203.838H280.945Z" fill="white"/>
<path d="M255.188 212.053V196.195H257.028V203.001H265.857V196.195H267.697V212.053H265.857V204.675H257.028V212.053H255.188Z" fill="white"/>
<path d="M239.398 212.053V196.195H241.239V203.001H250.068V196.195H251.908V212.053H250.068V204.675H241.239V212.053H239.398Z" fill="white"/>
<path d="M222.088 212.053L228.551 196.195H230.742L237.204 212.053H235.32L233.502 207.582H225.79L223.972 212.053H222.088ZM226.469 205.908H232.823L229.646 198.089L226.469 205.908Z" fill="white"/>
<path d="M205.084 215.137V210.379H206.902C208.151 205.886 208.611 201.856 208.83 196.195H219.017V210.379H220.661V215.137H218.82V212.053H206.924V215.137H205.084ZM208.786 210.379H217.177V197.869H210.539C210.32 202.737 209.75 206.811 208.786 210.379Z" fill="white"/>
<path d="M188.537 212.053L195 196.195H197.191L203.654 212.053H201.769L199.951 207.582H192.24L190.421 212.053H188.537ZM192.919 205.908H199.272L196.095 198.089L192.919 205.908Z" fill="white"/>
<path d="M172.51 212.053V210.379C174.394 210.379 175.051 208.617 175.051 204.3V196.195H186.356V212.053H184.515V197.869H176.891V205.27C176.891 210.511 175.248 212.053 172.51 212.053Z" fill="white"/>
<path d="M159.338 212.053V196.195H161.178V203.992L169.262 196.195H171.716L164.749 202.913L171.716 212.053H169.591L163.544 204.08L161.178 206.349V212.053H159.338Z" fill="white"/>
<path d="M145.666 212.053V210.379C147.068 210.379 147.945 209.63 149.456 206.789L143.629 196.195H145.623L150.442 205.071L155.262 196.195H157.256L151.362 206.943C149.435 210.467 148.142 212.053 145.666 212.053Z" fill="white"/>
<path d="M124.586 208.575L126.558 208.399C126.558 208.399 127.062 210.601 130.654 210.601C133.086 210.601 134.883 209.566 134.883 207.584C134.883 205.315 132.911 204.632 128.595 204.632V203.091C132.758 203.091 134.488 202.32 134.488 200.205C134.488 198.553 132.999 197.65 130.523 197.65C127.324 197.65 126.777 199.919 126.777 199.919L124.805 199.743C124.805 199.743 125.44 195.977 130.523 195.977C133.919 195.977 136.329 197.496 136.329 200.205C136.329 202.408 134.861 203.531 133.371 203.795C134.751 204.016 136.723 204.963 136.723 207.584C136.723 210.601 134.401 212.275 130.654 212.275C125.112 212.275 124.586 208.575 124.586 208.575Z" fill="white"/>
<path d="M116.485 212.053H114.645V198.089L106.495 212.053H103.822V196.195H105.663V210.159L113.812 196.195H116.485V212.053Z" fill="white"/>
<path d="M94.2365 212.053V197.869H88.6719V196.195H101.641V197.869H96.0767V212.053H94.2365Z" fill="white"/>
<path d="M75.2207 212.053V196.195H82.3627C85.7146 196.195 87.7082 198.332 87.7082 201.283C87.7082 204.234 85.7146 206.371 82.3627 206.371H77.061V212.053H75.2207ZM77.061 204.697H82.3627C84.7287 204.697 85.8679 203.265 85.8679 201.283C85.8679 199.301 84.7287 197.869 82.3627 197.869H77.061V204.697Z" fill="white"/>
<path d="M60.7793 212.053V196.195H72.04V197.869H62.6196V203.023H71.4046V204.697H62.6196V210.379H72.1495V212.053H60.7793Z" fill="white"/>
<path d="M45.373 212.053V196.195H57.4881V212.053H55.6479V197.869H47.2133V212.053H45.373Z" fill="white"/>
<path d="M42.7519 208.927C42.1823 210.183 40.3201 212.275 36.6615 212.275C32.4113 212.275 29.0156 209.39 29.0156 204.126C29.0156 198.862 32.4113 195.977 36.6615 195.977C40.3201 195.977 42.1823 198.069 42.7519 199.324L41.0431 199.853C40.583 199.17 39.2904 197.65 36.6615 197.65C33.6163 197.65 30.8559 199.765 30.8559 204.126C30.8559 208.487 33.6163 210.601 36.6615 210.601C39.2904 210.601 40.583 209.081 41.0431 208.399L42.7519 208.927Z" fill="white"/>
<path d="M16.084 212.053V196.195H17.9242V203.992L26.0083 196.195H28.462L21.4952 202.913L28.462 212.053H26.3369L20.2903 204.08L17.9242 206.349V212.053H16.084Z" fill="white"/>
<path d="M1.64258 212.053V196.195H12.9032V197.869H3.48284V203.023H12.2679V204.697H3.48284V210.379H13.0128V212.053H1.64258Z" fill="white"/>
</svg>
