<svg width="128" height="70" viewBox="0 0 128 70" fill="none" xmlns="http://www.w3.org/2000/svg">
<path d="M50.6328 30.6221H69.8427V35.6169H56.1732V42.0337H67.8611V47.0284H56.1732V53.6079H69.8427V58.6027H50.6328V30.6211V30.6221Z" fill="#060C0A"/>
<path d="M85.5274 54.7436H89.3144L100.901 32.6509V30.6211H95.8053L91.0331 40.3272L87.6364 47.3937H87.3939L84.0369 40.4898L79.063 30.6211H73.9668V32.7021L85.5274 54.7436Z" fill="#E64415"/>
<path d="M73.9668 40.4297V58.6008H79.5072V50.9941L73.9668 40.4297Z" fill="#060C0A"/>
<path d="M95.3613 50.9434V58.6012H100.902V40.3789L95.3613 50.9434Z" fill="#060C0A"/>
<path d="M121.446 58.6027V35.6169H111.173V58.6027H105.633V30.6211H127.067V58.6027H121.445H121.446Z" fill="#060C0A"/>
<path d="M31.1239 27.025V58.2856H42.7925V23.2211H63.8099V9.83192L46.1944 0H0.708984V19.6649H17.8303V41.0935H20.2918V17.1931H3.16945V2.47179H45.5617L58.89 9.83192H31.1239V27.025Z" fill="#E64415"/>
<path d="M127.488 67.7799H126.899V63.3166L124.291 67.7799H123.436V62.7112H124.024V67.1745L126.632 62.7112H127.488V67.7799Z" fill="#060C0A"/>
<path d="M118.773 67.7799V62.7112H119.362V65.2033L121.949 62.7112H122.734L120.505 64.8584L122.734 67.7799H122.054L120.119 65.2315L119.362 65.9566V67.7799H118.773Z" fill="#060C0A"/>
<path d="M113.857 67.7798V62.7111H116.031C117.335 62.7111 117.72 63.3728 117.72 64.0416C117.72 64.6048 117.335 65.0201 116.963 65.1469C117.524 65.3158 117.86 65.7593 117.86 66.3366C117.86 67.0617 117.461 67.7798 116.101 67.7798H113.857ZM114.446 64.9005H116.248C116.83 64.9005 117.131 64.5414 117.131 64.0416C117.131 63.5981 116.851 63.2461 116.031 63.2461H114.446V64.9005ZM114.446 67.2448H116.101C116.991 67.2448 117.272 66.8083 117.272 66.3366C117.272 65.8227 116.921 65.4214 116.248 65.4214H114.446V67.2448Z" fill="#060C0A"/>
<path d="M112.148 67.7798V62.7111H112.737V67.7798H112.148Z" fill="#060C0A"/>
<path d="M107.414 67.7798V62.7111H108.003V65.2032L110.59 62.7111H111.375L109.146 64.8582L111.375 67.7798H110.695L108.76 65.2313L108.003 65.9565V67.7798H107.414Z" fill="#060C0A"/>
<path d="M103.039 67.7798V67.2448C103.487 67.2448 103.768 67.0054 104.252 66.0973L102.387 62.7111H103.025L104.567 65.5481L106.109 62.7111H106.747L104.861 66.1465C104.245 67.2729 103.831 67.7798 103.039 67.7798Z" fill="#060C0A"/>
<path d="M98.0762 67.7798V62.7111H100.362C101.434 62.7111 102.072 63.3939 102.072 64.3373C102.072 65.2806 101.434 65.9635 100.362 65.9635H98.6651V67.7798H98.0762ZM98.6651 65.4285H100.362C101.119 65.4285 101.483 64.9709 101.483 64.3373C101.483 63.7037 101.119 63.2461 100.362 63.2461H98.6651V65.4285Z" fill="#060C0A"/>
<path d="M93.2305 67.7798V62.7111H96.7848V63.2461H93.8194V64.7245H95.4037C96.7638 64.7245 97.1634 65.4918 97.1634 66.2521C97.1634 67.0124 96.7638 67.7798 95.4037 67.7798H93.2305ZM93.8194 67.2448H95.4037C96.2941 67.2448 96.5815 66.759 96.5815 66.2521C96.5815 65.7453 96.2941 65.2595 95.4037 65.2595H93.8194V67.2448Z" fill="#060C0A"/>
<path d="M90.4912 67.7799H89.9023V65.6891H88.2618L87.2102 67.7799H86.5723L87.6589 65.6187C87.035 65.4286 86.5723 64.978 86.5723 64.1966C86.5723 63.3377 87.1822 62.7112 88.1777 62.7112H90.4912V67.7799ZM89.9023 65.154V63.2462H88.1777C87.4906 63.2462 87.1611 63.6334 87.1611 64.2036C87.1611 64.7668 87.4906 65.154 88.1777 65.154H89.9023Z" fill="#060C0A"/>
<path d="M81.6602 67.7798V62.7111H82.249V64.8864H85.0743V62.7111H85.6632V67.7798H85.0743V65.4214H82.249V67.7798H81.6602Z" fill="#060C0A"/>
<path d="M76.6074 67.7799V62.7112H77.1963V64.8865H80.0215V62.7112H80.6104V67.7799H80.0215V65.4215H77.1963V67.7799H76.6074Z" fill="#060C0A"/>
<path d="M71.0684 67.7798L73.1365 62.7111H73.8375L75.9056 67.7798H75.3027L74.7208 66.3507H72.2531L71.6713 67.7798H71.0684ZM72.4705 65.8157H74.5035L73.487 63.3165L72.4705 65.8157Z" fill="#060C0A"/>
<path d="M65.627 68.7655V67.2449H66.2088C66.6084 65.8087 66.7557 64.5204 66.8258 62.7112H70.0857V67.2449H70.6114V68.7655H70.0226V67.7799H66.2158V68.7655H65.627ZM66.8117 67.2449H69.4968V63.2462H67.3726C67.3025 64.802 67.1202 66.1044 66.8117 67.2449Z" fill="#060C0A"/>
<path d="M60.332 67.7798L62.4001 62.7111H63.1012L65.1693 67.7798H64.5664L63.9845 66.3507H61.5168L60.9349 67.7798H60.332ZM61.7341 65.8157H63.7672L62.7507 63.3165L61.7341 65.8157Z" fill="#060C0A"/>
<path d="M55.2031 67.7798V67.2448C55.806 67.2448 56.0164 66.6816 56.0164 65.3017V62.7111H59.6338V67.7798H59.0449V63.2461H56.6052V65.6115C56.6052 67.287 56.0794 67.7798 55.2031 67.7798Z" fill="#060C0A"/>
<path d="M50.9883 67.7798V62.7111H51.5772V65.2032L54.1641 62.7111H54.9492L52.7199 64.8582L54.9492 67.7798H54.2692L52.3343 65.2313L51.5772 65.9565V67.7798H50.9883Z" fill="#060C0A"/>
<path d="M46.6129 67.7798V67.2448C47.0616 67.2448 47.342 67.0054 47.8257 66.0973L45.9609 62.7111H46.5989L48.1412 65.5481L49.6835 62.7111H50.3215L48.4357 66.1465C47.8187 67.2729 47.4051 67.7798 46.6129 67.7798Z" fill="#060C0A"/>
<path d="M39.8672 66.6676L40.4981 66.6113C40.4981 66.6113 40.6594 67.3153 41.8091 67.3153C42.5873 67.3153 43.1621 66.9844 43.1621 66.3508C43.1621 65.6257 42.5312 65.4075 41.1501 65.4075V64.9147C42.4821 64.9147 43.0359 64.6683 43.0359 63.9924C43.0359 63.4644 42.5592 63.1758 41.767 63.1758C40.7435 63.1758 40.5682 63.9009 40.5682 63.9009L39.9373 63.8446C39.9373 63.8446 40.1406 62.6408 41.767 62.6408C42.8537 62.6408 43.6248 63.1265 43.6248 63.9924C43.6248 64.6964 43.1551 65.0555 42.6784 65.1399C43.1201 65.2103 43.751 65.513 43.751 66.3508C43.751 67.3153 43.0079 67.8503 41.8091 67.8503C40.0354 67.8503 39.8672 66.6676 39.8672 66.6676Z" fill="#060C0A"/>
<path d="M37.2747 67.7799H36.6859V63.3166L34.0779 67.7799H33.2227V62.7112H33.8115V67.1745L36.4195 62.7112H37.2747V67.7799Z" fill="#060C0A"/>
<path d="M30.1557 67.7798V63.2461H28.375V62.7111H32.5252V63.2461H30.7446V67.7798H30.1557Z" fill="#060C0A"/>
<path d="M24.0703 67.7798V62.7111H26.3557C27.4284 62.7111 28.0663 63.3939 28.0663 64.3373C28.0663 65.2806 27.4284 65.9635 26.3557 65.9635H24.6592V67.7798H24.0703ZM24.6592 65.4285H26.3557C27.1129 65.4285 27.4774 64.9709 27.4774 64.3373C27.4774 63.7037 27.1129 63.2461 26.3557 63.2461H24.6592V65.4285Z" fill="#060C0A"/>
<path d="M19.4492 67.7798V62.7111H23.0526V63.2461H20.0381V64.8934H22.8493V65.4285H20.0381V67.2448H23.0877V67.7798H19.4492Z" fill="#060C0A"/>
<path d="M14.5195 67.7798V62.7111H18.3964V67.7798H17.8075V63.2461H15.1084V67.7798H14.5195Z" fill="#060C0A"/>
<path d="M13.6808 66.7802C13.4985 67.1815 12.9026 67.8503 11.7318 67.8503C10.3718 67.8503 9.28516 66.9281 9.28516 65.2455C9.28516 63.563 10.3718 62.6408 11.7318 62.6408C12.9026 62.6408 13.4985 63.3096 13.6808 63.7108L13.1339 63.8798C12.9867 63.6616 12.5731 63.1758 11.7318 63.1758C10.7574 63.1758 9.87404 63.8516 9.87404 65.2455C9.87404 66.6394 10.7574 67.3153 11.7318 67.3153C12.5731 67.3153 12.9867 66.8295 13.1339 66.6113L13.6808 66.7802Z" fill="#060C0A"/>
<path d="M5.14648 67.7799V62.7112H5.73537V65.2033L8.32225 62.7112H9.10743L6.87809 64.8584L9.10743 67.7799H8.42741L6.49251 65.2315L5.73537 65.9566V67.7799H5.14648Z" fill="#060C0A"/>
<path d="M0.525391 67.7799V62.7112H4.1288V63.2462H1.11428V64.8936H3.9255V65.4286H1.11428V67.2449H4.16386V67.7799H0.525391Z" fill="#060C0A"/>
</svg>
