<svg width="14" height="14" viewBox="0 0 14 14" fill="none" xmlns="http://www.w3.org/2000/svg">
<g clip-path="url(#clip0_4554_1485)">
<path fill-rule="evenodd" clip-rule="evenodd" d="M13.5998 9.658L11.8764 7.93453C11.6214 7.68027 11.276 7.53749 10.9159 7.53749C10.5558 7.53749 10.2104 7.68027 9.95542 7.93453L8.8906 8.99957C8.8196 9.07341 8.72645 9.12207 8.62528 9.13816C8.52411 9.15425 8.42046 9.13688 8.33006 9.08871C7.45834 8.64601 6.80529 8.21179 6.27654 7.72338C5.78807 7.19474 5.35391 6.54172 4.91132 5.66986C4.86313 5.57946 4.84576 5.4758 4.86185 5.37463C4.87795 5.27346 4.92663 5.1803 5.00049 5.10931L6.06534 4.04449C6.31964 3.78954 6.46245 3.44413 6.46245 3.08403C6.46245 2.72393 6.31964 2.37853 6.06534 2.12357L4.34186 0.400092C4.08694 0.145761 3.74154 0.00292969 3.38144 0.00292969C3.02134 0.00292969 2.67594 0.145761 2.42102 0.400092L0.672768 2.14862C0.0867091 2.73465 -0.413654 3.87658 0.53058 5.98858C1.14357 7.3596 2.26322 8.89675 3.68331 10.3167C5.10341 11.7367 6.64043 12.8564 8.01142 13.4694C8.86334 13.8503 9.5573 13.9961 10.1207 13.9961C10.9541 13.9961 11.5017 13.677 11.8514 13.3273L13.5997 11.5789C13.8541 11.324 13.9969 10.9786 13.9969 10.6185C13.997 10.2584 13.8541 9.91294 13.5998 9.658Z" fill="#1D1D1D"/>
</g>
<defs>
<clipPath id="clip0_4554_1485">
<rect width="14" height="14" fill="white"/>
</clipPath>
</defs>
</svg>
